<?xml version="1.0" standalone="no"?>
<!DOCTYPE svg PUBLIC "-//W3C//DTD SVG 1.1//EN" "http://www.w3.org/Graphics/SVG/1.1/DTD/svg11.dtd" >
<svg xmlns="http://www.w3.org/2000/svg">
<metadata>Generated by IcoMoon</metadata>
<defs>
<font id="icomoon" horiz-adv-x="1024">
<font-face units-per-em="1024" ascent="960" descent="-64" />
<missing-glyph horiz-adv-x="1024" />
<glyph unicode="&#x20;" horiz-adv-x="512" d="" />
<glyph unicode="&#xe900;" glyph-name="security" d="M752.64 667.136l-278.016-280.576-121.856 125.952c-14.848 15.36-38.912 15.872-53.76 1.024-15.36-14.848-15.36-38.912-0.512-53.76l148.992-154.624h0.512c2.56-2.56 5.632-3.584 7.68-5.632 1.024-0.512 2.56-2.56 4.096-2.56 5.12-2.048 9.728-3.072 14.848-3.072s9.728 1.024 13.824 3.072c1.024 0.512 2.56 2.048 4.096 2.56 3.072 2.048 6.144 3.072 8.704 5.632h0.512l304.64 308.224c14.848 15.36 14.848 38.912 0 53.76s-38.912 14.336-53.76 0zM963.584 683.52c-0.512 49.152-1.024 102.912-1.024 161.792 0 14.848-9.728 27.648-23.552 31.744-136.192 40.96-258.048 64.512-419.328 82.944h-5.632c-82.432-4.096-158.72-14.848-227.84-30.208s-135.68-33.28-197.12-52.224c-13.824-4.096-23.552-16.896-23.552-31.744 0-53.248-0.512-101.888-1.024-147.456-4.096-385.024-6.144-528.896 371.712-737.792 31.232-16.896 54.784-24.576 79.872-24.576 24.576 0 48.64 7.168 79.36 23.552 375.296 203.776 373.76 324.096 368.128 723.968v0zM562.688 18.944c-19.968-10.752-34.816-15.872-47.616-15.872s-26.624 5.12-47.616 16.384c-342.528 189.44-340.992 292.864-336.896 677.888 0.512 38.4 0.512 79.36 1.024 122.88 53.248 15.872 109.568 30.208 168.96 44.032 64.512 14.848 136.704 24.576 214.016 28.672 146.944-16.384 259.072-37.888 380.928-73.216 0-49.152 0.512-95.232 1.024-137.728 5.632-387.072 6.656-479.232-333.824-663.040z" />
<glyph unicode="&#xe901;" glyph-name="edit" d="M995.328 391.168c-15.872 0-28.672-12.8-28.672-28.16 0 0 0 0 0 0v-312.832c0-31.232-25.6-56.832-56.832-56.832h-796.16c-31.232 0-56.832 25.6-56.832 56.832v796.16c0 31.232 25.6 56.832 56.832 56.832h312.832c15.872 0 28.672 12.8 28.672 28.672s-12.8 28.672-28.672 28.672h-312.832c-62.464-0.512-113.664-51.712-113.664-114.176v-796.672c0-62.464 51.2-113.664 113.664-113.664h796.672c62.976 0 113.664 51.2 113.664 113.664v312.832c0 15.872-12.8 28.672-28.672 28.672 0 0 0 0 0 0zM409.088 345.088c10.752-10.752 28.672-10.752 39.424 0 0 0 0 0 0 0l555.52 555.52c10.752 10.752 10.752 28.672 0 39.424s-28.672 10.752-39.424 0v0l-555.52-555.52c-10.752-11.264-10.752-28.672 0-39.424 0 0 0 0 0 0z" />
<glyph unicode="&#xe902;" glyph-name="menu-outdent" d="M984.576 80.896h-945.152c-21.504 0-39.424 16.896-39.424 38.4s17.408 38.4 39.424 38.4h945.152c21.504 0 39.424-16.896 39.424-38.4s-17.408-38.4-39.424-38.4zM997.888 439.296h-628.736c-14.336 0-26.112 16.896-26.112 38.4s11.776 38.4 26.112 38.4h628.736c14.336 0 26.112-16.896 26.112-38.4s-11.776-38.4-26.112-38.4zM984.576 797.696h-945.152c-22.016 0-39.424 16.896-39.424 38.4s17.408 38.4 39.424 38.4h945.152c21.504 0 39.424-16.896 39.424-38.4s-17.408-38.4-39.424-38.4zM112.128 349.184l-101.888 101.888c-15.36 15.36-15.36 40.448 0 55.808l101.888 101.888c24.576 24.576 67.072 7.168 67.072-27.648v-204.288c0-34.816-42.496-52.736-67.072-27.648z" />
<glyph unicode="&#xe903;" glyph-name="menu-indent" d="M984.576 80.896h-945.152c-21.504 0-39.424 16.896-39.424 38.4s17.408 38.4 39.424 38.4h945.152c21.504 0 39.424-16.896 39.424-38.4s-17.408-38.4-39.424-38.4zM997.888 439.296h-628.736c-14.336 0-26.112 16.896-26.112 38.4s11.776 38.4 26.112 38.4h628.736c14.336 0 26.112-16.896 26.112-38.4s-11.776-38.4-26.112-38.4zM984.576 797.696h-945.152c-22.016 0-39.424 16.896-39.424 38.4s17.408 38.4 39.424 38.4h945.152c21.504 0 39.424-16.896 39.424-38.4s-17.408-38.4-39.424-38.4zM0 376.832v204.288c0 34.816 42.496 52.224 67.072 27.648l101.888-101.888c15.36-15.36 15.36-40.448 0-55.808l-101.888-101.888c-24.576-25.088-67.072-7.168-67.072 27.648z" />
<glyph unicode="&#xe904;" glyph-name="query" d="M647.168 8.192c-111.616 0-481.28 0-481.28 0-61.44 0-111.104 44.032-111.104 105.472v680.96c0 61.44 49.664 111.616 111.104 111.616h675.328c61.44 0 105.472-49.664 105.472-111.616 0 0 0-369.664 0-483.328 0-29.184 20.48-40.448 32.256-40.448 11.264 0 28.16 6.144 28.16 40.448 0 16.384 0 484.864 0 484.864 0 90.624-73.216 163.84-163.328 163.84h-680.448c-90.112 0-163.328-73.216-163.328-163.84v-681.472c0-90.624 73.216-163.84 163.328-163.84 0 0 369.664 0 483.84 0 12.8 0 46.592-2.56 46.080 26.112-0.512 40.448-33.28 31.232-46.080 31.232v0zM1006.592-6.656l-279.552 280.576c39.936 49.664 64 112.64 64 181.248 0 159.232-128.512 288.256-287.744 288.256-158.72 0-287.744-129.024-287.744-288.256s128.512-288.256 287.744-288.256c68.608 0 131.072 24.064 180.736 64l279.552-280.576c0 0 30.72-28.16 53.248-5.632 20.992 20.992-10.24 48.64-10.24 48.64v0zM503.296 239.104c-119.296 0-215.552 96.768-215.552 216.576 0 119.296 96.768 216.576 215.552 216.576 119.296 0 215.552-96.768 215.552-216.576s-96.256-216.576-215.552-216.576z" />
<glyph unicode="&#xe905;" glyph-name="print" d="M955.904 770.56h-121.344v98.304c0 44.544-23.040 91.136-67.584 91.136h-484.864c-44.544 0-93.696-46.592-93.696-91.136v-98.304h-94.72c-44.544 0-93.696-46.592-93.696-91.648v-297.984c0-45.056 49.152-70.656 93.696-70.656h94.72v-303.616c0-45.056 49.152-70.656 93.696-70.656h484.864c44.544 0 67.072 25.6 67.072 70.656v304.128h121.344c44.544 0 68.096 26.112 68.096 70.656v297.472c0.512 45.056-23.040 91.648-67.584 91.648zM244.736 868.352c0 14.848 25.088 37.888 39.424 37.888h480.256c14.848 0 13.312-23.040 13.312-37.888v-97.28h-532.992v97.28zM777.728 18.944c0-14.848-11.776-27.648-26.112-27.648h-480.256c-14.848 0-26.624 12.8-26.624 27.648v397.824c0 14.848 11.776 26.624 26.624 26.624h480.256c14.848 0 26.112-11.776 26.112-26.624v-397.824zM964.608 382.464c0-14.848 1.536-16.384-13.312-16.384h-120.32v43.52c0 44.544-22.528 90.624-66.56 90.624h-479.744c-44.032 0-92.672-46.080-92.672-90.624v-43.52h-94.208c-14.848 0-39.424 1.536-39.424 16.384v295.424c0 14.848 24.576 36.864 39.424 36.864h853.504c14.848 0 13.312-22.016 13.312-36.864v-295.424zM702.976 325.632h-377.344c-14.336 0.512-26.624-11.264-27.136-26.112 0 0 0-0.512 0-0.512 0-14.848 12.288-26.624 27.136-26.624h377.344c14.848 0 27.136 11.264 27.136 26.624-0.512 14.848-12.288 26.624-27.136 26.624 0 0 0 0 0 0zM702.976 168.96h-377.344c-14.848 0-27.136-12.288-27.136-27.136s11.776-27.136 26.624-27.136c0 0 0 0 0 0h377.344c14.848 0 26.624 12.288 26.624 27.136s-11.264 27.136-26.112 27.136zM826.368 649.216c0-22.016 17.92-39.936 39.424-39.936s39.424 17.92 39.424 39.936-17.92 39.936-39.424 39.936-39.424-17.92-39.424-39.936z" />
<glyph unicode="&#xe906;" glyph-name="export" d="M5.632 714.24l173.568 230.4c5.12 6.656 11.776 10.752 18.944 11.776 4.096 0 7.68 0 8.704 2.048 5.12-0.512 10.752-2.56 14.848-5.632l235.52-167.424c14.336-9.728 17.408-29.184 7.168-42.496-9.728-14.336-29.184-17.408-42.496-7.68l-180.736 128.512c34.304-270.848 223.744-462.848 479.232-517.12 15.36-3.072 24.064-20.48 19.968-35.84-4.096-16.384-20.48-24.064-36.352-20.48-276.48 58.368-482.304 267.264-520.192 559.104l-129.024-171.52c-9.728-13.824-29.184-16.384-43.008-6.144-13.312 9.728-15.872 28.672-6.144 42.496zM980.48-58.88c-10.752-4.096-30.72-3.072-40.96-3.072h-819.2c-22.528 0-41.472 4.608-57.856 20.48-15.872 15.872-27.136 41.984-27.136 64v367.104c0 16.896 11.776 28.16 28.16 28.16 0 0 28.16 0 28.16-28.16v-367.104c0-5.632 10.24-15.872 14.336-19.968s8.192-8.192 13.824-8.192l827.392 1.024c2.56 0 5.12 0.512 7.68 2.048 2.56 1.024 5.12 3.072 6.656 5.12 2.048 2.048 3.584 4.096 5.12 6.656 1.024 2.56 2.048 5.12 2.048 8.192v819.712c0-2.56-2.56 11.264-10.24 21.504-4.608 6.144-10.752 11.264-18.944 11.264h-367.104c-16.896 0-28.16 11.776-28.16 28.16 0 16.896 11.264 28.16 28.16 28.16h367.104c22.528 0 51.712-14.848 67.584-30.208 15.872-15.872 16.896-31.232 16.896-54.272v-819.2c0-66.048-30.72-76.288-43.52-81.408v0z" />
<glyph unicode="&#xe907;" glyph-name="import" d="M735.232 533.504l-173.568-230.4c-5.12-6.656-11.776-10.752-18.944-11.776-4.096 0-7.68 0-8.704-2.048-5.12 0.512-10.752 2.56-14.848 5.632l-235.52 167.424c-14.336 9.728-17.408 29.184-7.168 42.496 9.728 14.336 29.184 17.408 42.496 7.68l181.248-128.512c-34.304 270.848-224.256 463.36-479.232 517.12-15.36 3.072-24.064 20.48-19.968 35.84 4.096 16.384 20.48 24.064 36.352 20.48 276.48-58.368 482.304-267.264 520.192-559.104l129.024 171.52c9.728 13.824 29.184 16.384 43.008 6.144 13.312-9.728 15.872-28.672 5.632-42.496zM980.48-58.88c-10.752-4.096-30.72-3.072-40.96-3.072h-819.2c-22.528 0-41.472 4.608-57.856 20.48-15.872 15.872-27.136 41.984-27.136 64v367.104c0 16.896 11.776 28.16 28.16 28.16 0 0 28.16 0 28.16-28.16v-367.104c0-5.632 10.24-15.872 14.336-19.968s8.192-8.192 13.824-8.192l827.392 1.024c2.56 0 5.12 0.512 7.68 2.048 2.56 1.024 5.12 3.072 6.656 5.12 2.048 2.048 3.584 4.096 5.12 6.656 1.024 2.56 2.048 5.12 2.048 8.192v819.712c0-2.56-2.56 11.264-10.24 21.504-4.608 6.144-10.752 11.264-18.944 11.264h-367.104c-16.896 0-28.16 11.776-28.16 28.16 0 16.896 11.264 28.16 28.16 28.16h367.104c22.528 0 51.712-14.848 67.584-30.208 15.872-15.872 16.896-31.232 16.896-54.272v-819.2c0-66.048-30.72-76.288-43.52-81.408v0z" />
<glyph unicode="&#xe908;" glyph-name="basic-info" d="M824.832 960h-625.664c-62.976 0-113.664-51.2-113.664-113.664v-796.672c0-62.976 51.2-113.664 113.664-113.664h625.664c62.976 0 113.664 51.2 113.664 113.664v796.672c0 62.464-50.688 113.664-113.664 113.664zM881.664 49.664c0-31.232-25.6-56.832-56.832-56.832h-625.664c-31.232 0-56.832 25.6-56.832 56.832v796.672c0 31.232 25.6 56.832 56.832 56.832h625.664c31.232 0 56.832-25.6 56.832-56.832v-796.672zM761.856 475.648h-499.712c-15.36 0-27.648-12.288-27.648-27.648s12.288-27.648 27.648-27.648h500.224c15.36 0 27.648 12.288 27.648 27.648s-12.8 27.648-28.16 27.648zM761.856 697.856h-499.712c-15.36 0-27.648-12.288-27.648-27.648s12.288-27.648 27.648-27.648h500.224c15.36 0 27.648 12.288 27.648 27.648s-12.8 27.648-28.16 27.648zM761.856 253.44h-499.712c-15.36 0-27.648-12.288-27.648-27.648s12.288-27.648 27.648-27.648c0 0 0 0 0 0h500.224c15.36 0 27.648 12.288 27.648 27.648s-12.8 27.648-28.16 27.648z" />
<glyph unicode="&#xe909;" glyph-name="content" d="M17.408 677.888l458.752-216.064c23.040-10.752 49.664-10.752 72.704 0l458.752 216.064c14.336 6.656 20.48 23.552 13.824 37.888-3.072 6.144-7.68 10.752-13.824 13.824l-458.752 216.064c-23.040 10.752-49.664 10.752-72.704 0l-458.752-216.064c-14.336-6.656-20.48-23.552-13.824-37.888 3.072-6.144 8.192-10.752 13.824-13.824zM500.736 893.952c7.68 3.584 16.384 3.584 24.064 0l404.48-190.464-404.48-190.464c-7.68-3.584-16.384-3.584-24.064 0l-404.48 190.976 404.48 189.952zM983.552 473.6l-458.752-216.064c-7.68-3.584-16.384-3.584-24.064 0l-458.752 216.064c-13.824 7.168-31.232 1.024-37.888-12.8-7.168-13.824-1.024-31.232 12.8-37.888 0.512 0 1.024-0.512 1.024-0.512l458.752-216.064c23.040-10.752 49.664-10.752 72.704 0l458.752 216.064c14.336 6.656 20.48 23.552 14.336 37.376-6.656 14.336-23.552 20.48-37.376 14.336-1.024 0-1.024-0.512-1.536-0.512v0zM983.552 218.112l-458.752-216.064c-7.68-3.584-16.384-3.584-24.064 0l-458.752 216.064c-14.336 6.144-31.232-0.512-37.376-14.848-6.144-13.824 0-29.696 13.312-36.864l458.752-216.064c23.040-10.752 49.664-10.752 72.704 0l458.752 216.064c14.336 6.656 20.48 23.552 14.336 37.376-6.656 14.336-23.552 20.48-37.376 14.336-1.024 0-1.024 0-1.536 0v0z" />
<glyph unicode="&#xe90a;" glyph-name="auth" d="M910.336 619.008h-85.504v28.16c0 172.544-140.288 312.832-312.832 312.832s-312.832-140.288-312.832-312.832v-28.16h-85.504c-62.976 0-113.664-51.2-113.664-113.664v-455.168c0-63.488 50.688-114.176 113.664-114.176h796.672c62.976 0 113.664 50.688 113.664 113.664v455.68c-0.512 61.952-51.2 113.152-113.664 113.664zM512 902.656c140.8 0 255.488-114.688 255.488-255.488v-28.16h-510.976v28.16c0 140.8 114.688 255.488 255.488 255.488zM966.656 49.664c0-31.232-25.6-56.832-57.344-57.344h-795.648c-31.232 0-56.832 25.6-57.344 57.344v455.68c0 31.232 25.6 56.832 57.344 57.344h796.672c31.232 0 56.832-25.6 57.344-57.344l-1.024-455.68zM512 392.192c-30.72 0-55.296-24.576-55.808-55.296 0-19.968 10.752-38.4 27.648-48.128v-63.488c0-15.36 12.288-27.648 27.648-27.648s27.648 12.288 27.648 27.648v63.488c26.624 15.36 35.84 49.152 20.48 75.776-9.216 17.408-27.648 28.16-47.616 27.648z" />
<glyph unicode="&#xe90b;" glyph-name="delete" d="M881.664 846.336h-173.568c-13.312 64.512-70.656 113.664-139.264 113.664h-113.664c-68.608 0-125.952-49.152-139.264-113.664h-173.568c-78.336 0-142.336-64-142.336-142.336 0-15.872 12.8-28.672 28.16-28.672 0 0 0 0 0 0h113.664v-625.664c0-62.976 51.2-113.664 113.664-113.664h512c62.976 0 113.664 51.2 113.664 113.664v625.664h113.664c15.872 0 28.672 12.8 28.672 28.16 0 0 0 0 0 0 0.512 78.848-63.488 142.848-141.824 142.848zM455.168 903.168h113.664c36.352 0 68.608-23.040 80.384-56.832h-274.432c11.776 33.792 44.032 56.832 80.384 56.832zM824.832 49.664c0-31.232-25.6-56.832-56.832-56.832h-512c-31.232 0-56.832 25.6-56.832 56.832v625.664h625.664v-625.664zM881.664 732.672h-819.712c12.288 34.304 44.544 56.832 80.384 56.832h739.328c36.352 0 68.608-23.040 80.384-56.832h-80.384zM512 114.688c15.36 0 27.648 12.288 27.648 27.648 0 0 0 0 0 0v389.12c0 15.36-12.288 27.648-27.648 27.648s-27.648-12.288-27.648-27.648c0 0 0 0 0 0v-389.12c0-15.36 12.288-27.648 27.648-27.648 0 0 0 0 0 0zM345.088 114.688c15.36 0 27.648 12.288 27.648 27.648 0 0 0 0 0 0v389.12c0 15.36-12.288 27.648-27.648 27.648s-27.648-12.288-27.648-27.648c0 0 0 0 0 0v-389.12c0-15.36 12.288-27.648 27.648-27.648 0 0 0 0 0 0v0zM678.912 114.688c15.36 0 27.648 12.288 27.648 27.648 0 0 0 0 0 0v389.12c0 15.36-12.288 27.648-27.648 27.648s-27.648-12.288-27.648-27.648c0 0 0 0 0 0v-389.12c-0.512-15.36 12.288-27.648 27.648-27.648-0.512 0 0 0 0 0v0z" />
<glyph unicode="&#xe90c;" glyph-name="angle-up" d="M1024 224.256c0 7.68-3.072 14.848-8.192 19.968l-483.328 483.328c-11.264 11.264-29.184 11.264-40.448 0 0 0 0 0 0 0l-483.84-482.816c-11.264-11.264-11.264-29.184 0-40.448s29.184-11.264 40.448 0l463.36 463.36 463.36-463.36c11.264-11.264 29.184-11.264 40.448 0 5.12 5.632 8.192 12.8 8.192 19.968z" />
<glyph unicode="&#xe90d;" glyph-name="angle-double-up" d="M19.968 15.872l79.872-79.872 412.16 412.16 412.16-412.16 79.872 79.872-492.032 492.032-492.032-492.032zM512 800.256l412.16-412.16 79.872 79.872-492.032 492.032-492.032-492.032 79.872-79.872 412.16 412.16z" />
<glyph unicode="&#xe90e;" glyph-name="home" d="M1012.224 591.872l-483.328 362.496c-0.512 0.512-1.024 0.512-1.536 0.512-1.536 1.024-3.584 2.048-5.632 2.56-1.536 0.512-3.072 1.024-4.608 1.536-5.12 1.536-10.24 1.024-15.36-1.536-2.048-0.512-3.584-1.536-5.12-2.56-0.512 0-1.024 0-1.536-0.512l-483.328-362.496c-12.8-9.216-15.872-27.136-6.656-39.424s27.136-15.872 39.424-6.656c0.512 0 0.512 0.512 1.024 0.512l466.432 349.696 466.432-349.696c12.8-9.216 30.72-6.144 39.424 6.656 8.704 12.288 6.144 29.696-5.632 38.912zM938.496 505.344c-15.872 0-28.672-12.8-28.672-28.16 0 0 0 0 0 0v-483.328h-256v141.824c0 78.336-64 142.336-142.336 142.336s-141.824-64-141.824-142.336v-142.336h-256v483.328c0.512 15.872-12.288 28.672-27.648 29.184-15.872 0.512-28.672-12.288-29.184-27.648 0-0.512 0-0.512 0-1.024v-512c0-15.872 12.8-28.672 28.16-28.672 0 0 0 0 0 0h312.832c15.872 0 28.672 12.8 28.672 28.16 0 0 0 0 0 0v170.496c0 47.104 37.888 85.504 84.992 85.504s85.504-37.888 85.504-84.992c0 0 0 0 0 0v-170.496c0-15.872 12.8-28.672 28.16-28.672 0 0 0 0 0 0h312.832c15.872 0 28.672 12.8 28.672 28.16 0 0 0 0 0 0v512c0 15.872-12.288 28.672-28.16 28.672 0 0 0 0 0 0z" />
<glyph unicode="&#xe90f;" glyph-name="analysis" d="M256 334.336h-227.328c-15.872 0-28.672-12.8-28.672-28.16 0 0 0 0 0 0v-341.504c0-15.872 12.8-28.672 28.16-28.672 0 0 0 0 0 0h227.84c15.872 0 28.672 12.8 28.672 28.16 0 0 0 0 0 0v341.504c0 15.872-12.8 28.672-28.672 28.672 0 0 0 0 0 0zM227.328-7.168h-170.496v284.672h170.496v-284.672zM995.328 675.328h-227.328c-15.872 0-28.672-12.8-28.672-28.16 0 0 0 0 0 0v-682.496c0-15.872 12.8-28.672 28.16-28.672 0 0 0 0 0 0h227.328c15.872 0 28.672 12.8 28.672 28.16 0 0 0 0 0 0v683.008c0.512 15.872-12.288 28.16-28.16 28.16 0 0 0 0 0 0zM967.168-7.168h-170.496v625.664h170.496v-625.664zM625.664 960h-227.328c-15.872 0-28.672-12.8-28.672-28.16 0 0 0 0 0 0v-967.168c0-15.872 12.8-28.672 28.16-28.672 0 0 0 0 0 0h227.328c15.872 0 28.672 12.8 28.672 28.16 0 0 0 0 0 0v967.168c0.512 15.872-12.288 28.672-28.16 28.672 0 0 0 0 0 0zM597.504-7.168h-171.008v910.336h170.496l0.512-910.336z" />
<glyph unicode="&#xe910;" glyph-name="search" d="M1013.76-3.584l-202.24 203.264c68.096 80.384 108.544 184.832 108.544 298.496 0 254.976-205.824 461.824-459.776 461.824-254.464 0-460.288-206.848-460.288-461.824s205.824-461.824 460.288-461.824c115.2 0 220.672 42.496 301.568 113.152l201.728-202.752c13.824-13.824 36.352-13.824 50.176 0 13.824 13.312 13.824 35.84 0 49.664v0zM70.656 498.176c0 216.064 174.080 391.168 389.12 391.168s389.12-175.104 389.12-391.168c0-216.064-174.080-391.168-389.12-391.168-214.528 0-389.12 175.104-389.12 391.168v0z" />
<glyph unicode="&#xe911;" glyph-name="operation" d="M1020.416 940.032c8.704-17.92 0-39.936-18.944-49.664l-943.616-476.16c-18.944-9.728-41.472-3.072-50.176 14.848v0c-8.704 17.92 0 39.936 18.944 49.664l943.616 476.16c18.944 9.728 41.472 3.072 50.176-14.848v0zM995.84 958.976c18.944-4.608 31.232-20.992 27.648-36.864l-174.592-784.384c-3.584-15.872-21.504-25.088-40.448-20.992v0c-18.944 4.608-31.232 20.992-27.648 36.864l174.080 784.384c3.584 15.872 22.016 25.088 40.96 20.992v0zM986.624 924.16c14.336-13.312 16.896-34.304 5.632-47.104l-555.008-619.52c-11.264-12.8-31.744-11.776-46.080 1.536v0c-14.336 13.312-16.896 34.304-5.632 47.104l555.008 619.52c11.264 12.8 31.744 11.776 46.080-1.536v0zM349.184 311.296c-6.656-19.456-27.648-29.696-47.104-22.528l-275.456 102.4c-18.944 7.168-28.672 28.672-22.016 48.128v0c6.656 19.456 27.648 29.696 47.104 22.528l275.456-101.888c18.944-7.68 28.672-29.184 22.016-48.64v0zM846.848 132.608c-6.656-19.456-27.648-29.696-47.104-22.528l-275.456 101.888c-18.944 7.168-28.672 28.672-22.016 48.128v0c6.656 19.456 27.648 29.696 47.104 22.528l275.456-101.888c19.456-7.168 29.184-28.672 22.016-48.128v0zM444.416-26.624c0-20.48-16.384-37.376-36.352-37.376v0c-19.968 0-36.352 16.896-36.352 37.376v299.52c0 20.48 16.384 37.376 36.352 37.376v0c19.968 0 36.352-16.896 36.352-37.376v-299.52z" />
<glyph unicode="&#xe912;" glyph-name="workbench" d="M939.008 888.32h-854.016c-47.104 0-84.992-37.888-84.992-84.992v-568.832c0-47.104 37.888-84.992 84.992-84.992h398.848v-85.504h-142.336c-15.36 0-28.16-12.8-28.16-28.16s12.8-28.16 28.16-28.16h341.504c15.36 0 28.16 12.8 28.16 28.16s-12.8 28.16-28.16 28.16h-142.336v84.992h398.336c47.104 0 84.992 37.888 84.992 84.992v568.32c0.512 48.128-37.888 86.016-84.992 86.016v0zM84.992 832h854.016c15.36 0 28.16-12.8 28.16-28.16v-483.84h-910.336v482.816c0 16.384 12.8 29.184 28.16 29.184v0zM939.008 205.312h-854.016c-15.36 0-28.16 12.8-28.16 28.16v28.16h910.336v-28.16c0-15.36-12.288-28.16-28.16-28.16v0z" />
<glyph unicode="&#xe913;" glyph-name="system" d="M939.008 589.824h-55.296c-15.36 39.424-36.352 76.288-62.976 108.544l27.648 47.616c23.552 40.96 9.216 92.672-31.232 116.224l-98.304 57.856c-40.96 23.552-92.672 9.216-116.224-31.232l-27.136-47.104c-41.472 6.656-83.968 6.656-125.44 0l-27.648 46.592c-23.552 40.96-75.264 55.296-116.224 31.744l-99.328-57.344c-40.96-23.552-54.784-76.288-30.72-116.224l27.648-47.616c-26.624-32.768-47.616-69.12-62.976-108.544h-55.808c-47.104-0.512-84.992-38.4-84.992-86.016v-113.664c0-47.104 38.4-85.504 85.504-85.504h55.296c15.36-39.424 36.352-76.288 62.976-108.544l-27.648-47.616c-23.552-40.96-9.216-92.672 31.232-116.224l98.816-56.832c13.312-7.168 27.648-11.776 42.496-11.776 7.168 0 15.36 1.024 22.016 3.072 22.016 5.632 40.448 19.968 51.712 39.936l27.136 47.104c41.472-6.656 83.968-6.656 125.44 0l27.136-47.104c23.552-40.96 75.776-55.296 116.224-31.232l98.816 57.344c40.96 23.552 54.784 76.288 31.232 116.224l-27.648 47.616c26.624 32.768 47.616 69.12 62.976 108.544h55.296c47.104 0 85.504 38.4 85.504 85.504v113.152c-0.512 47.616-38.4 85.504-85.504 85.504zM967.168 390.656c0-15.872-12.8-28.16-28.16-28.16h-95.232l-6.144-19.968c-14.848-45.568-39.424-87.552-71.68-123.392l-13.824-15.36 48.128-82.944c7.68-13.824 3.072-30.72-10.24-38.912v0l-99.328-57.344c-13.824-7.68-30.72-3.072-38.912 10.24v0l-47.616 82.944-20.48-4.096c-47.104-9.728-95.744-9.728-142.848 0l-20.48 4.096-47.616-82.944c-7.68-13.824-25.088-18.432-38.912-10.24l-98.816 57.344c-13.824 7.68-18.432 25.088-10.24 38.912v0l48.128 82.944-13.824 15.36c-32.768 35.84-56.832 77.824-71.68 123.392l-6.144 19.968h-96.256c-15.872 0-28.16 12.8-28.16 28.16v113.664c0 15.872 12.8 28.16 28.16 28.16h95.232l6.144 19.968c14.848 45.568 39.424 87.552 71.68 123.392l13.824 15.36-48.128 82.944c-7.68 13.824-3.072 30.72 10.24 38.912v0l99.328 57.856c13.824 7.68 30.72 3.072 38.912-10.24v0l47.616-82.944 20.48 4.096c47.104 9.728 95.744 9.728 142.848 0l20.48-4.096 47.616 82.944c7.68 13.824 25.088 18.432 38.912 10.24l98.816-57.344c13.824-7.68 18.432-25.088 10.24-38.912v0l-48.128-82.944 13.824-15.36c32.768-35.84 56.832-77.824 71.68-123.392l6.144-19.968h95.232c15.872 0 28.16-12.8 28.16-28.16v-114.176h1.024zM512 619.008c-94.208 0-171.008-76.8-171.008-171.008s76.8-171.008 171.008-171.008 171.008 76.8 171.008 171.008-76.288 171.008-171.008 171.008zM512 333.824c-62.976 0-113.664 50.688-113.664 113.664s50.688 113.664 113.664 113.664 113.664-50.688 113.664-113.664-50.688-113.664-113.664-113.664z" />
<glyph unicode="&#xe914;" glyph-name="angle-down" d="M1015.808 728.064c-11.264 11.264-29.184 11.264-40.448 0l-463.36-463.36-463.36 463.36c-11.264 11.264-29.184 11.264-40.448 0s-11.264-29.184 0-40.448l483.328-483.328c0 0 0 0 0 0 11.264-11.264 29.184-11.264 40.448 0l483.328 483.328c5.12 5.12 8.192 12.8 8.192 19.968 0.512 8.192-2.56 15.36-7.68 20.48z" />
<glyph unicode="&#xe915;" glyph-name="download" d="M995.328 163.328c-15.872 0-28.672-12.8-28.672-28.16 0 0 0 0 0 0v-142.336h-909.824v142.336c0 15.872-12.8 28.672-28.672 28.672s-28.16-12.8-28.16-28.672v-170.496c0-15.872 12.8-28.672 28.16-28.672 0 0 0 0 0 0h967.168c15.872 0 28.672 12.8 28.672 28.16 0 0 0 0 0 0v170.496c0 16.384-12.8 28.672-28.672 28.672 0 0 0 0 0 0zM492.032 58.368c11.264-11.264 29.184-11.264 40.448 0l284.672 284.16c11.264 11.264 11.264 29.184 0 40.448s-29.184 11.264-40.448 0v0l-236.032-236.032v784.384c0 15.872-12.8 28.672-28.672 28.672s-28.672-12.8-28.672-28.672v-784.896l-236.032 236.032c-11.264 11.264-29.184 10.752-40.448 0-10.752-11.264-10.752-29.184 0-39.936l285.184-284.16z" />
<glyph unicode="&#xe916;" glyph-name="message" d="M915.456 141.312c-43.52 34.816-77.312 101.376-101.376 198.656-32.256 131.584-32.768 270.848-32.768 271.872 0 113.664-73.728 210.432-175.616 245.76 1.024 5.12 1.536 10.24 1.536 14.848 0.512 47.616-37.888 87.040-85.504 87.552s-86.528-37.888-87.040-85.504c0-0.512 0-1.024 0-2.048 0-5.12 0.512-10.24 1.536-14.848-101.888-35.328-175.616-132.096-175.616-245.76 0-1.536-0.512-140.288-32.768-271.872-24.064-97.28-57.856-163.84-101.376-198.656-12.288-9.728-14.336-27.648-4.608-39.936 4.096-5.12 9.728-8.704 15.872-9.728 7.168-1.536 89.088-19.968 211.968-31.232 11.776-70.144 83.968-123.904 171.52-123.904 86.528 0 158.208 53.248 171.008 122.368 69.12 6.144 140.288 16.384 211.968 32.768 15.36 3.584 24.576 18.944 21.504 34.304-1.536 5.632-5.12 11.264-10.24 15.36v0zM491.52 872.448c0 16.384 13.312 29.696 29.696 29.696s29.696-13.312 29.696-29.696c0-1.024 0-1.536-0.512-2.048-19.456 2.56-38.912 2.56-58.368 0 0 0.512-0.512 1.536-0.512 2.048zM521.216-7.168c-53.248 0-97.28 27.136-111.616 62.464 38.912-2.56 80.384-4.096 123.904-4.096 31.744 0 64.512 1.024 97.792 2.56-14.336-34.816-57.856-60.928-110.080-60.928v0zM201.216 137.216c34.816 44.544 61.952 108.032 81.92 188.928 34.304 138.24 34.304 279.552 34.304 285.696 0 112.128 91.136 203.264 203.264 203.264s203.264-91.136 203.264-203.264c0-6.144 0.512-147.456 34.304-285.696 19.968-81.408 47.616-144.896 82.944-189.952-269.312-51.712-532.48-17.408-640 1.024v0z" />
<glyph unicode="&#xe917;" glyph-name="business" d="M910.336 788.992h-199.168v56.832c0 31.232-25.6 56.832-56.832 56.832h-284.16c-31.232 0-56.832-25.6-56.832-56.832v-56.832h-198.656c-62.976 0-113.664-50.688-113.664-113.664v-568.32c0-62.976 50.688-113.664 113.664-113.664h795.648c62.976 0 113.664 50.688 113.664 113.664v568.32c0 62.976-50.688 113.664-113.664 113.664zM370.176 845.824h284.16v-56.832h-284.16v56.832zM114.688 732.16h795.648c31.232 0 56.832-25.6 56.832-56.832v-170.496h-909.312v170.496c0 31.232 25.6 56.832 56.832 56.832zM592.384 448c-11.776-33.28-42.496-56.832-79.872-56.832s-68.096 23.552-79.872 56.832h159.744zM910.336 50.176h-795.648c-31.232 0-56.832 25.6-56.832 56.832v340.992h315.392c13.312-64.512 70.656-113.664 139.264-113.664s125.952 49.152 139.264 113.664h315.392v-340.992c0-31.232-25.6-56.832-56.832-56.832z" />
<glyph unicode="&#xe918;" glyph-name="email" d="M1024.512 694.784c0 1.024 0 2.048 0 3.584 0 3.072-0.512 6.144-1.536 9.216-8.704 53.76-55.296 94.72-111.616 94.72h-798.72c-56.32 0-102.912-40.96-112.128-94.72-1.024-2.56-1.536-5.632-1.536-9.216 0-1.024 0-2.56 0-3.584 0-2.048-0.512-4.608-0.512-6.656v-513.536c0-62.976 51.2-114.176 114.176-114.176h798.72c62.976 0 114.176 51.2 114.176 114.176v513.536c0 2.56-0.512 4.608-1.024 6.656v0zM112.64 744.96h798.72c23.040 0 42.496-13.312 51.712-32.768l-451.072-265.728-451.072 265.216c9.216 19.968 29.184 33.28 51.712 33.28v0zM911.36 117.76h-798.72c-31.232 0-56.832 25.6-56.832 56.832v474.112l441.856-260.096c0 0 0 0 0.512 0 3.072-1.536 6.656-2.56 10.24-3.072-5.12 1.024-4.096 0.512-3.584 0.512 1.536-0.512 3.584-0.512 5.632-0.512-0.512 0 0.512-0.512 1.536-0.512v0c1.024 0 1.536 0.512 2.56 0.512 2.048 0 4.096 0.512 6.144 1.024-0.512 0 0 0.512 1.024 0.512 3.584 1.024 7.168 3.072 9.728 5.12-5.12-3.584-4.608-3.072-4.608-3.072l441.856 260.096v-474.112c-0.512-31.744-26.112-57.344-57.344-57.344v0z" />
<glyph unicode="&#xe919;" glyph-name="preview" d="M1013.76 480.256c-55.296 80.384-256 341.504-501.76 341.504s-446.464-261.12-501.76-341.504c-6.656-9.216-10.24-20.48-10.24-32.256 0-12.288 3.584-23.552 10.24-32.768 55.296-79.872 255.488-340.992 501.76-340.992s446.464 261.12 501.76 341.504c6.144 9.216 10.24 20.48 10.24 32.256 0 12.288-3.584 23.552-10.24 32.256v0zM967.168 448c-36.864-52.736-230.912-316.928-455.168-316.928s-418.304 264.192-455.168 316.928c36.864 52.736 230.912 316.928 455.168 316.928s418.304-264.192 455.168-316.928v0zM512 649.216c-111.104 0-201.216-90.112-201.216-201.216s90.112-201.216 201.216-201.216 201.216 90.112 201.216 201.216-90.112 201.216-201.216 201.216zM512 303.616c-79.36 0-144.384 64.512-144.384 144.384s65.024 144.384 144.384 144.384 144.384-64.512 144.384-144.384-65.024-144.384-144.384-144.384v0z" />
<glyph unicode="&#xe91a;" glyph-name="angle-double-down" d="M19.968 880.128l492.032-492.032 492.032 492.032-79.872 79.872-412.16-412.16-412.16 412.16-79.872-79.872zM512 95.744l-412.16 412.16-79.872-79.872 492.032-492.032 492.032 492.032-79.872 79.872-412.16-412.16z" />
<glyph unicode="&#xe91b;" glyph-name="copy-create" d="M1023.488 423.424v135.168c0 109.056 0 218.624 0 327.68 0 41.984-31.232 73.216-72.704 73.216h-628.224c-41.472 0-72.704-31.232-72.704-72.704 0-208.896 0-417.792 0-626.688 0-40.96 31.744-72.704 72.192-72.704h387.072c80.896 0 161.792 0 242.688 0 3.584 0 8.192 0 12.288 1.024 35.328 6.656 59.904 36.352 59.904 72.192 0 37.888 0 75.776 0 113.152l-0.512 49.664zM974.848 293.888c0-9.728-0.512-19.456-2.048-28.672-2.56-16.384-12.288-25.6-28.672-27.648-7.68-1.024-15.872-1.536-23.040-1.536-56.32 0-112.64 0-168.448 0h-224.256c-58.368 0-116.224 0-174.592 0-7.68 0-14.336 0.512-20.992 1.024-22.016 2.56-31.232 12.288-32.768 34.816-0.512 8.704-1.024 16.384-1.024 23.040 0 164.352 0 358.4 0 556.032 0 10.24 1.024 20.48 2.048 30.72 2.048 15.36 11.264 24.064 26.112 26.624 8.704 1.536 16.384 2.048 23.552 2.048 97.792 0 196.096 0 293.888 0 92.16 0 184.832 0 276.992 0 8.192 0 15.36-0.512 22.016-1.536 19.456-3.072 27.648-12.8 29.696-32.768 1.024-9.216 1.024-16.384 1.024-23.552 0.512-218.624 0.512-396.288 0.512-558.592zM766.976 96.768c-4.608 4.608-10.24 7.168-16.896 7.68h-1.024c-14.336 0-24.064-11.264-24.064-26.624v-8.192c0-15.872-0.512-32.768-1.024-48.64-1.024-20.992-11.264-31.232-32.256-33.792-7.168-1.024-13.824-1.024-20.48-1.024-92.16 0-184.32 0-276.48 0-97.28 0-195.072 0-292.352 0-7.168 0-14.336 0.512-22.528 1.536-17.408 2.048-26.624 11.264-29.184 28.16-1.536 10.24-2.048 19.968-2.048 29.696 0 160.256 0 331.776 0 556.032 0 7.68 0.512 15.872 1.024 24.064 2.048 22.016 12.288 32.768 33.792 34.816 0.512 0 1.536 0 2.048 0l17.92 0.512c15.36 0.512 29.696 0.512 45.056 0.512 14.336 0 24.576 10.24 24.576 24.064 0 6.656-2.56 12.8-6.656 17.408-4.608 4.608-11.264 7.168-18.432 7.168h-30.208l-26.624-1.024h-18.944c-40.448 0-72.192-31.744-72.192-72.192 0-208.384 0-419.84 0-628.224 0-40.448 31.744-72.192 72.192-72.192h448c54.272 0 117.76 0 182.784 0 7.68 0 15.872 1.536 23.040 4.096 28.16 9.728 47.616 36.864 48.128 68.096 0 7.68 0 14.848 0 22.528 0 14.336 0 29.696 0.512 44.544-0.512 8.192-3.072 15.36-7.68 20.992zM854.528 578.048c-2.048 13.824-14.336 24.576-28.16 24.576-22.016 0-43.52 0-65.536 0h-97.28v53.248c0 35.84 0 72.192 0 108.032 0 17.92-12.288 30.72-29.184 30.72-17.408 0-29.184-12.8-29.184-30.72v-161.28h-76.8c-27.648 0-55.296 0-82.944 0-2.56 0-6.144 0-9.216-1.024-14.848-3.584-23.040-17.408-22.016-33.28 1.536-13.824 14.336-24.576 28.672-24.576 21.504 0 42.496 0 64.512 0h98.304v-162.304c0-9.216 3.072-16.384 9.728-22.016 6.144-5.12 12.288-7.68 19.456-7.68 4.096 0 8.704 1.024 12.8 3.072 11.776 5.12 17.408 14.336 17.408 27.648 0 35.328 0 71.168 0 105.984v55.296h74.752c28.672 0 57.856 0 86.528 0 3.584 0 7.168 0.512 10.24 1.536 11.264 4.096 19.968 17.92 17.92 32.768zM633.856 794.624v0 0z" />
</font>
</defs>
</svg>
